<svg xmlns="http://www.w3.org/2000/svg" xmlns:xlink="http://www.w3.org/1999/xlink" width="500" zoomAndPan="magnify" viewBox="0 0 375 374.999991" height="500" preserveAspectRatio="xMidYMid meet" version="1.2"><defs><clipPath id="5ee4ca6527"><path d="M 259.96875 174.164062 L 288.140625 174.164062 L 288.140625 202.335938 L 259.96875 202.335938 Z M 259.96875 174.164062 "/></clipPath><clipPath id="6e69eeabf5"><path d="M 274.054688 174.164062 C 266.277344 174.164062 259.96875 180.472656 259.96875 188.25 C 259.96875 196.027344 266.277344 202.335938 274.054688 202.335938 C 281.832031 202.335938 288.140625 196.027344 288.140625 188.25 C 288.140625 180.472656 281.832031 174.164062 274.054688 174.164062 Z M 274.054688 174.164062 "/></clipPath></defs><g id="796aeabb84"><g clip-rule="nonzero" clip-path="url(#5ee4ca6527)"><g clip-rule="nonzero" clip-path="url(#6e69eeabf5)"><path style=" stroke:none;fill-rule:nonzero;fill:#ffcc00;fill-opacity:1;" d="M 259.96875 174.164062 L 288.140625 174.164062 L 288.140625 202.335938 L 259.96875 202.335938 Z M 259.96875 174.164062 "/></g></g><g style="fill:#000000;fill-opacity:1;"><g transform="translate(86.367546, 200.900238)"><path style="stroke:none" d="M 35.921875 -47.984375 C 40.367188 -47.984375 43.707031 -46.503906 45.9375 -43.546875 C 48.164062 -40.585938 49.28125 -36.914062 49.28125 -32.53125 L 49.28125 -8.875 C 49.28125 -6.082031 49.5625 -4.269531 50.125 -3.4375 C 50.695312 -2.601562 51.710938 -2.1875 53.171875 -2.1875 L 53.171875 0 L 29.328125 0 L 29.328125 -2.1875 C 31.585938 -2.1875 32.71875 -3.816406 32.71875 -7.078125 L 32.71875 -36.21875 C 32.71875 -37.414062 32.453125 -38.507812 31.921875 -39.5 C 31.390625 -40.5 30.457031 -41 29.125 -41 C 27.0625 -41 24.835938 -38.875 22.453125 -34.625 L 22.453125 -8.875 C 22.453125 -6.945312 22.582031 -5.515625 22.84375 -4.578125 C 23.113281 -3.648438 23.492188 -3.035156 23.984375 -2.734375 C 24.484375 -2.441406 25.203125 -2.257812 26.140625 -2.1875 L 26.140625 0 L 2 0 L 2 -2.1875 C 3.457031 -2.1875 4.46875 -2.601562 5.03125 -3.4375 C 5.601562 -4.269531 5.890625 -6.082031 5.890625 -8.875 L 5.890625 -38.90625 C 5.890625 -40.832031 5.570312 -42.210938 4.9375 -43.046875 C 4.300781 -43.878906 3.320312 -44.363281 2 -44.5 L 2 -46.6875 L 22.453125 -46.6875 L 22.453125 -40.796875 L 22.640625 -40.796875 C 24.503906 -43.191406 26.484375 -44.988281 28.578125 -46.1875 C 30.671875 -47.382812 33.117188 -47.984375 35.921875 -47.984375 Z M 35.921875 -47.984375 "/></g></g><g style="fill:#000000;fill-opacity:1;"><g transform="translate(134.951329, 200.900238)"><path style="stroke:none" d="M 26.53125 -47.984375 C 31.257812 -47.984375 35.414062 -46.96875 39 -44.9375 C 42.59375 -42.914062 45.367188 -40.039062 47.328125 -36.3125 C 49.296875 -32.59375 50.28125 -28.269531 50.28125 -23.34375 C 50.28125 -18.820312 49.347656 -14.664062 47.484375 -10.875 C 45.617188 -7.082031 42.890625 -4.035156 39.296875 -1.734375 C 35.710938 0.554688 31.457031 1.703125 26.53125 1.703125 C 21.875 1.703125 17.75 0.640625 14.15625 -1.484375 C 10.570312 -3.617188 7.78125 -6.582031 5.78125 -10.375 C 3.789062 -14.164062 2.796875 -18.488281 2.796875 -23.34375 C 2.796875 -28.195312 3.773438 -32.484375 5.734375 -36.203125 C 7.691406 -39.929688 10.46875 -42.828125 14.0625 -44.890625 C 17.65625 -46.953125 21.8125 -47.984375 26.53125 -47.984375 Z M 19.546875 -24.34375 C 19.546875 -18.882812 19.726562 -14.554688 20.09375 -11.359375 C 20.46875 -8.171875 21.148438 -5.78125 22.140625 -4.1875 C 23.140625 -2.59375 24.601562 -1.796875 26.53125 -1.796875 C 28.394531 -1.796875 29.828125 -2.5625 30.828125 -4.09375 C 31.828125 -5.625 32.523438 -8 32.921875 -11.21875 C 33.316406 -14.445312 33.515625 -18.820312 33.515625 -24.34375 C 33.515625 -29.726562 33.296875 -33.847656 32.859375 -36.703125 C 32.429688 -39.566406 31.71875 -41.582031 30.71875 -42.75 C 29.726562 -43.914062 28.300781 -44.5 26.4375 -44.5 C 24.4375 -44.5 22.9375 -43.734375 21.9375 -42.203125 C 20.945312 -40.671875 20.300781 -38.507812 20 -35.71875 C 19.695312 -32.925781 19.546875 -29.132812 19.546875 -24.34375 Z M 19.546875 -24.34375 "/></g></g><g style="fill:#000000;fill-opacity:1;"><g transform="translate(182.437737, 200.900238)"><path style="stroke:none" d="M 35.21875 -47.984375 C 37.539062 -47.984375 39.550781 -47.367188 41.25 -46.140625 C 42.945312 -44.910156 44.628906 -42.898438 46.296875 -40.109375 C 48.617188 -43.035156 50.757812 -45.078125 52.71875 -46.234375 C 54.6875 -47.398438 57 -47.984375 59.65625 -47.984375 C 64.3125 -47.984375 67.71875 -46.382812 69.875 -43.1875 C 72.039062 -40 73.125 -36.113281 73.125 -31.53125 L 73.125 -8.875 C 73.125 -6.945312 73.238281 -5.5 73.46875 -4.53125 C 73.707031 -3.570312 74.09375 -2.941406 74.625 -2.640625 C 75.15625 -2.335938 75.921875 -2.1875 76.921875 -2.1875 L 76.921875 0 L 53.171875 0 L 53.171875 -2.1875 C 54.035156 -2.257812 54.703125 -2.441406 55.171875 -2.734375 C 55.640625 -3.035156 55.988281 -3.648438 56.21875 -4.578125 C 56.445312 -5.515625 56.5625 -6.945312 56.5625 -8.875 L 56.5625 -36.609375 C 56.5625 -38.410156 56.257812 -39.59375 55.65625 -40.15625 C 55.0625 -40.71875 54.332031 -41 53.46875 -41 C 51.207031 -41 49.28125 -39.632812 47.6875 -36.90625 L 47.6875 -5.6875 C 47.6875 -4.15625 47.800781 -3.207031 48.03125 -2.84375 C 48.269531 -2.476562 48.785156 -2.257812 49.578125 -2.1875 L 49.578125 0 L 29.625 0 L 29.625 -2.1875 C 30.425781 -2.257812 30.941406 -2.492188 31.171875 -2.890625 C 31.410156 -3.285156 31.53125 -4.285156 31.53125 -5.890625 L 31.53125 -36.71875 C 31.53125 -38.507812 31.296875 -39.671875 30.828125 -40.203125 C 30.359375 -40.734375 29.757812 -41 29.03125 -41 C 27.03125 -41 24.898438 -38.972656 22.640625 -34.921875 L 22.640625 -8.78125 C 22.640625 -6.851562 22.753906 -5.421875 22.984375 -4.484375 C 23.222656 -3.554688 23.570312 -2.941406 24.03125 -2.640625 C 24.5 -2.335938 25.203125 -2.1875 26.140625 -2.1875 L 26.140625 0 L 1.796875 0 L 1.796875 -2.1875 C 3.460938 -2.1875 4.59375 -2.550781 5.1875 -3.28125 C 5.78125 -4.019531 6.078125 -5.585938 6.078125 -7.984375 L 6.078125 -39.015625 C 6.078125 -40.941406 5.710938 -42.316406 4.984375 -43.140625 C 4.253906 -43.972656 3.191406 -44.425781 1.796875 -44.5 L 1.796875 -46.6875 L 22.640625 -46.6875 L 22.640625 -40.109375 L 22.84375 -40.109375 C 24.769531 -42.898438 26.75 -44.910156 28.78125 -46.140625 C 30.8125 -47.367188 32.957031 -47.984375 35.21875 -47.984375 Z M 35.21875 -47.984375 "/></g></g></g></svg>